HIERARCHY
ROOT Hips
{
	OFFSET -0.001795 -0.223333 0.028219
	CHANNELS 6 Xposition Yposition Zposition Zrotation Yrotation Xrotation 
	JOINT LeftUpLeg
	{
		OFFSET 0.069520 -0.091406 -0.006815
		CHANNELS 3 Zrotation Yrotation Xrotation
		JOINT LeftLeg
		{
			OFFSET 0.034277 -0.375199 -0.004496
			CHANNELS 3 Zrotation Yrotation Xrotation
			JOINT LeftFoot
			{
				OFFSET -0.013596 -0.397961 -0.043693
				CHANNELS 3 Zrotation Yrotation Xrotation
				JOINT LeftToe
				{
					OFFSET 0.026358 -0.055791 0.119288
					CHANNELS 3 Zrotation Yrotation Xrotation
					End Site
					{
						OFFSET 0.000000 0.000000 0.000000
					}
				}
			}
		}
	}
	JOINT RightUpLeg
	{
		OFFSET -0.067670 -0.090522 -0.004320
		CHANNELS 3 Zrotation Yrotation Xrotation
		JOINT RightLeg
		{
			OFFSET -0.038290 -0.382569 -0.008850
			CHANNELS 3 Zrotation Yrotation Xrotation
			JOINT RightFoot
			{
				OFFSET 0.015774 -0.398415 -0.042312
				CHANNELS 3 Zrotation Yrotation Xrotation
				JOINT RightToe
				{
					OFFSET -0.025372 -0.048144 0.123348
					CHANNELS 3 Zrotation Yrotation Xrotation
					End Site
					{
						OFFSET 0.000000 0.000000 0.000000
					}
				}
			}
		}
	}
	JOINT Spine
	{
		OFFSET -0.002533 0.108963 -0.026696
		CHANNELS 3 Zrotation Yrotation Xrotation
		JOINT Spine1
		{
			OFFSET 0.005487 0.135180 0.001092
			CHANNELS 3 Zrotation Yrotation Xrotation
			JOINT Spine2
			{
				OFFSET 0.001457 0.052922 0.025425
				CHANNELS 3 Zrotation Yrotation Xrotation
				JOINT Neck
				{
					OFFSET -0.002778 0.213870 -0.042857
					CHANNELS 3 Zrotation Yrotation Xrotation
					JOINT Head
					{
						OFFSET 0.005152 0.064970 0.051349
						CHANNELS 3 Zrotation Yrotation Xrotation
						End Site
						{
							OFFSET 0.000000 0.000000 0.000000
						}
					}
				}
				JOINT LeftShoulder
				{
					OFFSET 0.078845 0.121749 -0.034090
					CHANNELS 3 Zrotation Yrotation Xrotation
					JOINT LeftArm
					{
						OFFSET 0.090977 0.030469 -0.008868
						CHANNELS 3 Zrotation Yrotation Xrotation
						JOINT LeftForeArm
						{
							OFFSET 0.259612 -0.012772 -0.027456
							CHANNELS 3 Zrotation Yrotation Xrotation
							JOINT LeftHand
							{
								OFFSET 0.249234 0.008986 -0.001171
								CHANNELS 3 Zrotation Yrotation Xrotation
								End Site
								{
									OFFSET 0.000000 0.000000 0.000000
								}
							}
						}
					}
				}
				JOINT RightShoulder
				{
					OFFSET -0.081759 0.118833 -0.038615
					CHANNELS 3 Zrotation Yrotation Xrotation
					JOINT RightArm
					{
						OFFSET -0.096012 0.032551 -0.009143
						CHANNELS 3 Zrotation Yrotation Xrotation
						JOINT RightForeArm
						{
							OFFSET -0.253742 -0.013329 -0.021401
							CHANNELS 3 Zrotation Yrotation Xrotation
							JOINT RightHand
							{
								OFFSET -0.255298 0.007772 -0.005559
								CHANNELS 3 Zrotation Yrotation Xrotation
								End Site
								{
									OFFSET 0.000000 0.000000 0.000000
								}
							}
						}
					}
				}
			}
		}
	}
}
MOTION
Frames: 10
Frame Time: 0.050000
0.000000 0.940696 0.000000 -6.735221 -7.696780 6.008328 0.860870 0.629291 6.919609 1.430887 -0.736765 24.033269 -0.163059 3.438472 11.669340 0.000000 0.000000 0.000000 8.115462 6.083761 -32.378637 1.324375 1.171324 25.626144 -2.908299 -8.609772 2.438932 0.000000 0.000000 0.000000 11.149231 -1.415954 8.787162 -2.169981 0.923688 -21.097934 -3.443194 -1.656597 30.442330 8.333593 -5.514876 -18.748834 0.000000 0.000000 0.000000 -4.907833 -1.149533 0.712479 -55.825428 5.162278 -10.700851 -63.888365 -67.288163 53.810128 0.000000 0.000000 0.000000 18.237722 -12.207168 -9.356938 53.847005 -21.336923 -16.760402 39.993478 38.024252 14.692493 0.000000 0.000000 0.000000 
0.001727 0.956649 0.009797 -7.221823 -6.436229 7.942841 1.082948 0.697258 8.004702 3.028194 -1.361796 24.460802 -0.092083 5.232741 17.614712 0.000000 0.000000 0.000000 9.191498 6.267492 -32.586003 -0.371899 1.138494 18.959059 -3.107579 -9.333366 3.267884 0.000000 0.000000 0.000000 11.731888 -1.033522 4.967045 -0.693378 0.582765 -21.648526 -4.526068 -5.550562 31.984632 6.456489 -4.615539 -20.558872 0.000000 0.000000 0.000000 -2.161814 3.129730 -1.055702 -56.812988 3.926321 -9.654157 -72.247302 -70.330821 66.047148 0.000000 0.000000 0.000000 11.762483 -12.131912 -8.029650 58.518874 -22.613846 -19.668313 44.149181 37.240007 15.132774 0.000000 0.000000 0.000000 
0.003470 0.958083 0.019490 -6.698037 -7.572201 7.181601 1.163144 0.491776 5.758642 2.653512 -1.265633 35.600388 -1.332043 3.701902 18.861585 0.000000 0.000000 0.000000 10.091293 5.619866 -28.600440 -1.345118 1.191272 15.935031 -3.526522 -9.281339 0.528784 0.000000 0.000000 0.000000 10.669860 -0.758085 3.685938 -0.252383 0.441453 -21.360665 -3.408114 -4.421149 32.327440 6.094946 -4.231930 -21.427368 0.000000 0.000000 0.000000 -2.474496 1.611096 -0.433113 -54.797871 3.507295 -9.481826 -79.346776 -69.462306 71.694814 0.000000 0.000000 0.000000 8.230605 -13.370582 -7.352149 60.323928 -23.621926 -21.266084 48.676844 36.550638 16.631783 0.000000 0.000000 0.000000 
0.004777 0.941207 0.026512 -7.151802 -7.783600 6.265644 2.862568 0.080494 1.629917 2.996542 -1.386700 49.430752 0.317981 5.116206 14.002396 0.000000 0.000000 0.000000 11.548825 5.227499 -25.553161 0.379103 1.327237 23.268278 -4.945173 -10.972437 -4.432700 0.000000 0.000000 0.000000 10.969082 -0.742044 3.745600 0.064349 0.329826 -20.726867 -3.405677 -2.623250 32.549051 5.737582 -3.654462 -22.040624 0.000000 0.000000 0.000000 -2.982334 1.471377 -0.392227 -54.488284 2.626863 -9.333514 -76.519432 -70.379147 69.141135 0.000000 0.000000 0.000000 10.525960 -11.038887 -6.726678 59.947898 -20.446555 -19.250639 49.267587 39.875045 19.143097 0.000000 0.000000 0.000000 
0.005912 0.920205 0.027699 -6.687889 -7.473964 3.992099 4.069278 -0.291713 -4.938684 3.610740 -2.034757 60.152847 1.924268 6.180629 7.042126 0.000000 0.000000 0.000000 12.124417 3.471324 -17.797597 0.274321 1.571033 26.124103 -5.241721 -8.656201 -11.407670 0.000000 0.000000 0.000000 9.055447 -0.882551 6.228388 -0.785816 0.542583 -19.700110 0.044247 0.075469 31.322660 6.145762 -3.110033 -23.956468 0.000000 0.000000 0.000000 -7.260705 -0.022960 0.193930 -50.526061 0.900587 -8.574730 -65.692510 -72.932430 59.674247 0.000000 0.000000 0.000000 13.756801 -8.119780 -5.551745 59.282619 -13.128417 -15.037302 43.317807 46.914347 21.190248 0.000000 0.000000 0.000000 
0.008134 0.912133 0.023929 -5.482888 -8.667379 3.051505 6.371657 -0.369036 -15.017331 1.510832 0.002733 64.186006 4.099221 8.895824 1.276746 0.000000 0.000000 0.000000 10.928020 1.601965 -9.918893 -1.387345 2.244329 26.368135 -4.342055 -3.370184 -13.919923 0.000000 0.000000 0.000000 6.789608 -0.896823 8.337771 -1.096147 0.609323 -19.710033 2.408135 6.217411 30.479090 7.595714 -3.043846 -23.599952 0.000000 0.000000 0.000000 -7.554099 -1.353877 0.208396 -50.697838 1.654873 -9.001427 -51.217603 -71.607925 43.643926 0.000000 0.000000 0.000000 14.621745 -7.015238 -4.118609 59.782653 -5.687597 -11.284856 37.807244 54.509478 23.918931 0.000000 0.000000 0.000000 
0.012371 0.921263 0.020203 -4.040380 -9.635311 3.676551 5.806403 -0.467602 -24.807466 0.819358 0.532400 57.243025 6.336834 13.157447 0.415899 0.000000 0.000000 0.000000 8.837582 -0.262665 -0.584696 -3.398481 2.103893 19.234738 -3.431931 -1.044772 -12.061904 0.000000 0.000000 0.000000 4.393682 -0.755589 9.260803 -1.798044 0.819124 -21.108710 4.497633 11.707220 31.184025 8.868421 -2.918129 -23.982879 0.000000 0.000000 0.000000 -7.807497 -0.528402 -0.710172 -50.924955 3.777685 -9.989468 -41.593146 -67.233045 31.436078 0.000000 0.000000 0.000000 11.408066 -5.795522 -2.471795 64.285126 1.771364 -7.588143 30.691731 61.650625 25.187242 0.000000 0.000000 0.000000 
0.018577 0.938632 0.021402 -2.169110 -10.652575 4.760459 4.368403 -0.714281 -31.162663 -0.090255 0.548082 42.188137 8.035472 16.484592 3.641371 0.000000 0.000000 0.000000 5.380471 -0.948695 5.124420 -4.637735 2.023208 15.823834 -1.185991 1.240792 -5.944337 0.000000 0.000000 0.000000 1.554263 -0.486084 9.602632 -3.161969 1.152717 -20.909414 6.182424 16.479879 30.456991 10.418476 -3.250068 -23.336533 0.000000 0.000000 0.000000 -9.619213 -1.211854 -1.257120 -49.777952 9.012543 -11.626067 -42.773262 -62.243643 27.817989 0.000000 0.000000 0.000000 11.226487 -4.543336 -1.361592 63.197878 9.097963 -3.046550 17.300908 69.028434 20.882173 0.000000 0.000000 0.000000 
0.026871 0.951096 0.029593 -1.722602 -9.488916 6.616822 3.345010 -1.123935 -33.068558 0.053977 -0.180572 26.530125 5.743889 12.235615 3.760966 0.000000 0.000000 0.000000 3.182057 -1.111217 8.304006 -5.081130 2.131026 16.108225 0.719739 -0.057544 2.804928 0.000000 0.000000 0.000000 1.002026 -0.395922 8.308633 -3.810199 1.346172 -21.325420 6.232128 17.937268 31.133801 12.507560 -4.058462 -24.212185 0.000000 0.000000 0.000000 -8.757830 0.834734 -2.310279 -52.104999 17.511113 -15.972518 -43.843235 -55.969315 24.598482 0.000000 0.000000 0.000000 10.763938 -4.207830 -0.929968 61.887253 12.879517 -0.908234 12.654570 70.425771 18.975247 0.000000 0.000000 0.000000 
0.036437 0.942678 0.042701 -2.184177 -9.518229 7.017662 2.810653 -1.276491 -32.726094 -2.287890 0.579784 23.457158 4.750294 10.036649 1.139949 0.000000 0.000000 0.000000 1.740494 -0.889943 7.824879 -5.194608 3.619824 26.802205 -0.673076 -4.329606 5.014896 0.000000 0.000000 0.000000 1.597727 -0.379510 6.435742 -4.356298 1.500359 -19.369571 6.120294 20.712661 30.417373 14.197225 -4.647799 -24.260821 0.000000 0.000000 0.000000 -7.151425 0.347016 -2.101464 -55.008879 24.634036 -20.553316 -44.871767 -53.384991 23.222936 0.000000 0.000000 0.000000 11.348555 -4.203342 -0.579425 58.336980 12.643991 -1.143353 6.997239 66.835062 14.235308 0.000000 0.000000 0.000000 
